<svg width="252" height="164" xmlns="http://www.w3.org/2000/svg">
 <!-- Created with Method Draw - http://github.com/duopixel/Method-Draw/ -->
 <defs>
  <filter height="200%" width="200%" y="-50%" x="-50%" id="svg_3_blur">
   <feGaussianBlur stdDeviation="0" in="SourceGraphic"/>
  </filter>
 </defs>
 <g>
  <title>background</title>
  <rect fill="#fff" id="canvas_background" height="166" width="254" y="-1" x="-1"/>
 </g>
 <g>
  <title>Layer 1</title>
  <path stroke-dasharray="2,2" d="m9,14.953125c0,1 0,4 0,7c0,4 0,8 0,11c0,2 0,4 0,6c0,2 0,3 0,5c0,2 0,4 0,5c0,2 0,4 0,5c0,1 0,2 0,3c0,1 0,2 0,3c0,1 0,3 0,4c0,0 0,1 0,1c0,0 0,0 0,1c0,0 1,0 1,0c0,0 0,0 1,0c0,0 2,-1 8,-1c4,0 8.907787,-0.496223 13,-1c3.970032,-0.488731 7,0 11,0c3,0 6,0 10,0c1,0 4.025826,0.320366 6,0c3.121445,-0.506538 5,-1 6,-1c2,0 3,0 5,0c2,0 4,0 6,0c2,0 4,0 7,0c3,0 5,-1 6,-1c1,0 2,0 3,0c1,0 2,0 4,0c1,0 2,0 3,0c1,0 2,-1 2,-1c0,0 0,0 0,0c0,0 0,0 0,-1c0,0 -0.492691,-2.02433 0,-7c0.502441,-5.074203 0.234634,-11.152241 1,-13c0.541199,-1.306564 1,-2 1,-2c0,-1 0,-3 0,-8c0,-6 0,-8 0,-9c0,-2 0,-4 0,-5c0,-2 0,-4 0,-5c0,-1 0,-1 -1,-1c0,0 -1,0 -4,0c-4,0 -7.937965,0.498291 -14,1c-4.982964,0.412403 -12,1 -16,1c-5,0 -10,0 -15,0c-3,0 -8,0 -11,0c-2,0 -5,0 -8,0c-3,0 -5,0 -8,0c-2,0 -4,0 -6,0c-2,0 -3.82375,-0.486258 -6,-1c-0.973248,-0.229753 -2,0 -3,0c-1,0 -2,0 -3,-1c0,0 0,0 0,0c1,0 2.066002,1.877657 4,3c3.118477,1.809723 4.746746,3.371346 9,6c3.804226,2.351143 5.593998,4.513008 8,6c2.689995,1.662506 5.593994,3.513008 8,5c2.689995,1.662506 6,3 8,4c2,1 2.693436,2.458805 4,3c0.923882,0.382683 1.693436,1.458805 3,2c1.847755,0.765366 2.076118,0.617317 3,1c1.306564,0.541195 1,1 1,1c0,0 0.076118,0.382683 1,0c1.306564,-0.541195 3,-2 5,-3c4,-2 6,-3 8,-4c2,-1 3.881523,-3.190277 7,-5c1.933998,-1.122341 5,-3 7,-5c1,-1 3.474266,-3.149349 4,-4c1.175568,-1.902115 3.458801,-0.693436 4,-2c0.382683,-0.923878 1,-1 2,-1c0,0 -0.707108,-0.292892 0,-1c0.707108,-0.707108 1.292892,0.707108 2,0c0.707108,-0.707108 1,-1 1,-1l0,0l1,0l0,-1" id="svg_1" stroke-width="5" stroke="#ffc0cb" fill="none"/>
  <path stroke-dasharray="2,2" d="m10,59.953125c1,0 2.812656,-3.20681 5,-5c2.788326,-2.285881 6,-4 8,-6c1,-1 2.186008,-2.692551 4,-4c1.14727,-0.826904 3,-3 4,-4c1,-1 2,-2 3,-2c0,0 0,-1 1,-1c0,0 0.458801,0.306564 1,-1c0.382683,-0.923878 1,-2 2,-2l0,-1l1,0" id="svg_2" stroke-width="5" stroke="#ffc0cb" fill="none"/>
  <path filter="url(#svg_3_blur)" stroke-dasharray="2,2" d="m75,29.953125c1,1 2.211678,1.714119 5,4c4.374687,3.586384 6.796265,6.16124 10,10c1.432755,1.716743 2,3 3,4c1,1 2,2 3,3c0,0 1,1 1,2l1,0l0,1" id="svg_3" stroke-width="5" stroke="#ffc0cb" fill="none"/>
  <path stroke-linecap="round" d="m134,14.953125c0,1 0,5 0,11c0,4 0,12 0,15c0,5 0,8 0,10c0,2 0,2 0,3c0,1 0,2 0,2c0,1 0,2 0,2c0,1 0.292892,0.292892 1,1c0.707108,0.707108 0,3 0,3c0,1 0,2 0,3c0,1 0,1 0,2c0,1 0,1 0,1c0,0 0,0 0,0c1,0 4,0 16,0c10,0 16.946716,0.498741 24,1c4.987427,0.354446 10,0 15,0c1,0 4,0 7,0c4,0 6,0 8,0c1,0 2,0 3,0c1,0 2,0 3,0c1,0 2.693451,-0.458801 4,-1c2.771637,-1.148048 5,0 8,-1c0,0 1,0 2,0c0,0 1,0 1,0c0,0 0,-4 0,-9c0,-7 -0.800903,-12.064564 0,-17c0.506531,-3.121445 1,-5 1,-8c0,-2 0,-5 0,-8c0,-2 0,-3 0,-4c0,-2 0,-4 0,-6c0,-2 0,-2 0,-3c0,0 0,0 -1,0c0,0 0,0 -1,0c-3,0 -8,0 -13,0c-6,0 -12,0 -19,0c-6,0 -11,0 -18,0c-4,0 -8,0 -12,0c-3,0 -7,0 -10,0c-2,0 -5,0 -7,0c-1,0 -3,0 -4,0c-2,0 -3,0 -4,0c-1,0 -2,0 -2,0l0,0l-1,0l0,0" id="svg_10" stroke-width="11" stroke="#DDDDDD" fill="none"/>
  <path stroke-linecap="round" d="m136,16.953125c1,0 2.186005,-0.307451 4,1c2.29454,1.653811 4.159271,2.610649 7,4c3.238922,1.584103 6,3 8,4c2,1 4.70546,2.346191 7,4c1.813995,1.307453 4.186005,1.692547 6,3c1.147263,0.826904 2.852737,1.173096 4,2c1.813995,1.307453 5,2 7,3c2,1 2.823746,2.486256 5,3c0.973251,0.229752 2.292892,0.292892 3,1c0.707108,0.707108 0.292892,1.292892 1,2c0.707108,0.707108 1,0 2,0c0,0 0,0 0,0c0,0 1,-1 4,-3c3,-2 7.558197,-5.519283 11,-8c3.627991,-2.614902 5.705475,-4.346191 8,-6c1.813995,-1.307453 4,-3 6,-5c1,-1 2,-3 3,-4c1,-1 1,-2 2,-2l0,0l0,-1" id="svg_11" stroke-width="11" stroke="#DDDDDD" fill="none"/>
  <path stroke-linecap="round" d="m164,32.953125c-1,1 -1.418854,2.418861 -3,4c-1.581146,1.581139 -2.418854,2.418861 -4,4c-1.581146,1.581139 -1.418854,2.418861 -3,4c-1.581146,1.581139 -3.173096,1.85273 -4,3c-1.307449,1.813992 -2.292892,2.292892 -3,3c-0.707108,0.707108 -1.190277,1.881523 -3,5c-1.122345,1.933998 -2,4 -3,5c0,0 -1,1 -1,1c0,0 0,0 0,0l0,0l-1,0" id="svg_12" stroke-width="11" stroke="#DDDDDD" fill="none"/>
  <polyline stroke-linecap="round" id="svg_13" points="204,34.953125 221,60.953125 " stroke-width="11" stroke="#DDDDDD" fill="none"/>
  <path stroke-dasharray="5,2,2,2" d="m130,95.953125c0,1 0,4 0,6c0,6 -0.348694,11.008698 0,18c0.500626,10.037399 2,13 2,17c0,4 0,6 0,9c0,2 0,4 0,5c0,0 0,1 1,2c0,0 0,1 0,2c0,0 0,0 1,0c5,0 11.939102,-1.527115 27,-3c15.955109,-1.560333 27.013763,-0.502304 36,-1c9.041534,-0.500763 17.925781,-1.497559 23,-2c3.98053,-0.39415 9,-1 13,-1c2,0 5,0 7,0c1,0 1,0 1,1c0,0 0,0 0,0c0,0 0,-1 0,-2c0,-3 0,-11 0,-21c0,-10 0,-16 0,-22c0,-3 0,-4 0,-5c0,-1 -1,-3 -1,-5c0,-2 -1,-5 -1,-5c0,-1 0,-1 0,-1c0,0 -1,0 -1,0c0,0 -1,0 -1,0c-3,0 -6,0 -15,0c-9,0 -20.027679,-0.779778 -31,0c-7.053284,0.501259 -22,3 -25,3c-5,0 -10,0 -15,0c-3,0 -7,0 -10,0c-4,0 -6,0 -8,0c-1,0 -1,0 -1,0c0,0 1.076126,0.617317 2,1c1.306564,0.541199 2.794876,3.220215 6,6c3.777267,3.276009 8.918304,7.112137 13,10c2.943359,2.082474 6,4 8,5c2,1 5.186005,3.692551 7,5c1.147263,0.826904 2.61731,3.076126 3,4c0.541199,1.306564 1,1 2,2c0,0 0,0 0,0c0,0 0.149353,0.525726 1,0c1.902115,-1.175568 6.085541,-3.834686 12,-7c7.108276,-3.804245 13.900665,-6.212402 18,-8c7.831757,-3.415192 12.132019,-4.755318 16,-7c3.118469,-1.809723 7,-3 9,-4c2,-1 3,-1 4,-2l0,0l0,0l0,0" id="svg_14" stroke-width="9" stroke="#FFE7A2" fill="none"/>
  <path stroke-dasharray="5,2,2,2" d="m157,111.953125c-1,0 -1.692551,1.186005 -3,3c-1.653809,2.29454 -5,6 -7,9c-2,3 -4.95517,6.549149 -6,10c-0.579575,1.914185 -1.292892,3.292892 -2,4c-0.707108,0.707108 0,1 0,1c0,0 0,1 -1,1c0,0 0,0 0,0c-1,1 -2.486252,1.823746 -3,4c-0.229752,0.973251 -1,1 -1,2l0,0" id="svg_15" stroke-width="9" stroke="#FFE7A2" fill="none"/>
  <path stroke-dasharray="5,2,2,2" d="m202,105.953125c1,3 2.835052,5.113297 7,11c2.887848,4.081696 9.692535,12.186005 11,14c0.826904,1.147263 3.418854,4.418854 5,6c1.581146,1.581146 2,3 2,3c1,1 1,2 2,3c1,1 1,2 1,2c1,1 1,1 1,1c1,1 1.458801,2.693436 2,4c0.38269,0.923874 1,2 1,2l0,0" id="svg_16" stroke-width="9" stroke="#FFE7A2" fill="none"/>
  <path d="m12,89.953125c0,0 0.494884,5.020447 0,11c-0.501709,6.062042 -3.499569,16.968811 -4,29c-0.249352,5.994812 -1,13 -1,18c0,3 0,6 0,6c0,1 0.707108,1.292892 0,2c-0.707108,0.707108 0,-1 2,-1c7,0 21.007626,-0.57225 33,-1c14.026749,-0.50032 26,-1 32,-1c6,0 12.823746,0.486252 15,1c3.892998,0.919006 6,0 8,0c1,0 1,0 2,0c0,0 0,0 1,0c1,0 1,0 2,0c0,0 -0.471725,-4.012375 0,-13c1.001373,-19.078705 3.859543,-33.016724 5,-42c0.890549,-7.014763 2,-11 2,-12c0,-1 0,-1 0,-1c0,-1 0,-1 0,-1c-1,0 -3,0 -7,0c-7,0 -16.006912,0.332466 -24,0c-12.031189,-0.500435 -16.069,-0.414658 -27,-2c-5.046227,-0.731865 -12,-2 -17,-2c-4,0 -6,0 -8,0c-1,0 -1,0 -1,0c-1,0 -1,0 -1,0c-1,0 -3,0 -4,0c-1,0 -1,0 -1,0c0,0 0,0 -1,0c0,0 0,0 -2,0c0,0 -1,0 -1,0c0,0 -1,0 -1,0c0,0 0,0 -1,0c0,0 -1,0 -1,0c-1,0 -1,0 -1,0c0,1 0,1 0,1c0,0 -0.707108,1.292892 0,2c0.707108,0.707108 1,1 1,1c1,1 1,3 1,4c0,3 1,5 1,6c0,1 1,1 1,1c1,0 1,0 2,0c0,0 1,0 3,0c3,0 8.160507,-1.378517 14,0c4.352501,1.027489 8.318558,3.221298 14,6c3.238922,1.584106 6.761078,4.415894 10,6c2.840721,1.389359 3.823746,3.486252 6,4c1.946495,0.459503 3,1 5,2c2,1 3.026749,1.770248 4,2c2.176254,0.513748 3,1 4,1c1,0 1,0 2,0c0,0 0,0 1,0c0,0 2.729622,-3.228851 7,-8c5.659019,-6.322617 8.723991,-10.222733 12,-14c1.853195,-2.136749 3,-2 4,-3l0,0" id="svg_17" stroke-width="3" stroke="#B9FFCE" fill="none"/>
  <path d="m44,99.953125c0,0 -1,1 -3,4c-6,9 -10.528461,16.33287 -17,25c-4.672825,6.258163 -9.714119,11.21167 -12,14c-1.79319,2.187347 -3,4 -4,5l0,0l-1,1" id="svg_18" stroke-width="3" stroke="#B9FFCE" fill="none"/>
  <path d="m75,117.953125c0,1 0.172455,2.876282 3,7c5.334999,7.780609 10.371346,14.74675 13,19c2.351143,3.80423 3.693436,6.458801 5,7c0.923882,0.38269 1,1 1,1l0,0" id="svg_19" stroke-width="3" stroke="#B9FFCE" fill="none"/>
 </g>
</svg>
