<svg width="183" height="140" xmlns="http://www.w3.org/2000/svg">
 <!-- Created with Method Draw - http://github.com/duopixel/Method-Draw/ -->
 <g>
  <title>Layer 1</title>
  <path d="m17.75,33.453125c0,2 0,5 0,10c0,6 0,10 0,16c0,8 0,14 0,21c0,5 -0.497559,10.925781 -1,16c-0.39415,3.98053 0,9 0,12c0,3 0,7 0,10c0,3 0,6 0,8c0,1 0,2 0,3c0,0 -0.214401,-0.503723 4,-2c8.688202,-3.084656 23.934921,-4.999054 47,-6c17.983063,-0.780396 38,0 49,0c13,0 23,0 31,0c5,0 9,0 11,0c2,0 3,0 3,0c1,0 1,0 1,-2c0,-15 -1.228943,-33.03598 0,-54c1.001709,-17.087906 2.498291,-23.937958 3,-30c0.247437,-2.989777 0,-3 0,-4c0,0 0,-1 -1,-1c-2,0 -5.932037,-1.286316 -18,-4c-9.949585,-2.23732 -22.916199,-5.534042 -34,-7c-11.937622,-1.578873 -23,-2 -34,-2c-11,0 -26,0 -34,0c-6,0 -13.06456,0.199081 -18,1c-3.121445,0.506546 -6,1 -9,1c-2,0 -3.693436,0.458801 -5,1c-0.923874,0.38269 -1,0 -1,0c1,0 5.179062,2.743622 11,7c5.168716,3.779465 10.938126,9.078583 16,13c3.952652,3.062119 8.726501,6.293625 13,10c3.777267,3.276016 8,7 9,8c1,1 2,1 2,2c0,0 0,0 0,1c0,0 1,0 1,1c0,0 1.794876,0.220215 5,3c3.777283,3.276016 7,6 10,9c2,2 3.824432,3.097885 5,5c0.525726,0.850647 1,1 1,2c0,0 0,0 0,0c1,0 1,0 1,0c2,-1 5.976257,-4.033386 13,-9c9.966553,-7.047531 34.830994,-20.565033 44,-23c4.928192,-1.308762 10.868286,-3.288589 15,-5c2.92157,-1.210144 6.076111,-1.61731 7,-2c1.306549,-0.541199 1,-1 2,-1l0,0l1,-1" id="svg_22" fill-opacity="null" stroke-opacity="null" stroke-width="11.5" stroke="#ccc" fill="none"/>
  <path d="m60.75,68.453125c-1,0 -3,3 -9,9c-5,5 -11.401627,13.377686 -16,20c-4.454636,6.415314 -7.812653,11.206818 -10,13c-2.78833,2.285889 -3.852737,4.173096 -5,5c-1.813995,1.307465 -3,2 -3,3l0,0l0,1l-1,0" id="svg_23" fill-opacity="null" stroke-opacity="null" stroke-width="11.5" stroke="#ccc" fill="none"/>
  <path d="m109.75,63.453125c0,0 0.186005,-0.307449 2,1c1.147278,0.826904 4.826111,6.108521 8,11c6.644226,10.239838 13,17 18,22c3,3 6.705475,5.346191 9,7c1.813995,1.307465 3.186005,2.692535 5,4c1.147278,0.826904 1,1 2,2l0,0" id="svg_24" fill-opacity="null" stroke-opacity="null" stroke-width="11.5" stroke="#ccc" fill="none"/>
 </g>
</svg>
